<?xml version="1.0" encoding="utf-8"?>
<!-- Generator: Adobe Illustrator 26.0.3, SVG Export Plug-In . SVG Version: 6.00 Build 0)  -->
<svg version="1.0" id="katman_1" xmlns="http://www.w3.org/2000/svg" xmlns:xlink="http://www.w3.org/1999/xlink" x="0px" y="0px"
	 viewBox="0 0 600 450" style="enable-background:new 0 0 600 450;" xml:space="preserve">
<style type="text/css">
	.st0{opacity:0.5;fill:url(#SVGID_1_);enable-background:new    ;}
	.st1{opacity:0.5;fill:url(#SVGID_00000124158427457087667770000016790789797419255437_);enable-background:new    ;}
	.st2{opacity:0.25;fill:url(#SVGID_00000058571913233510440110000004249051209357149075_);enable-background:new    ;}
	.st3{opacity:0.5;fill:url(#SVGID_00000062879515041162459940000005537647992365472952_);enable-background:new    ;}
	.st4{fill:#D7DEE7;}
	.st5{fill:#BBC4CC;}
	.st6{fill:#76848C;}
	.st7{fill:#ECF1F4;}
	.st8{fill:#FFFFFF;}
	.st9{fill:#EB5961;}
</style>
<g>
	
		<linearGradient id="SVGID_1_" gradientUnits="userSpaceOnUse" x1="409.1682" y1="86.462" x2="284.3956" y2="-113.3486" gradientTransform="matrix(1 0 0 -1 -120.9449 379.3622)">
		<stop  offset="0" style="stop-color:#BCC4CD"/>
		<stop  offset="0.4969" style="stop-color:#DBE0E4;stop-opacity:0.5031"/>
		<stop  offset="1" style="stop-color:#FFFFFF;stop-opacity:0"/>
	</linearGradient>
	<polygon class="st0" points="184.8,281.6 55.7,448 252.5,522.1 396.9,336.1 	"/>
	
		<linearGradient id="SVGID_00000157289198922809770130000003854908431479639686_" gradientUnits="userSpaceOnUse" x1="416.89" y1="48.4334" x2="306.1816" y2="-128.8547" gradientTransform="matrix(1 0 0 -1 -120.9449 379.3622)">
		<stop  offset="0" style="stop-color:#BCC4CD"/>
		<stop  offset="0.4969" style="stop-color:#DBE0E4;stop-opacity:0.5031"/>
		<stop  offset="1" style="stop-color:#FFFFFF;stop-opacity:0"/>
	</linearGradient>
	
		<polygon style="opacity:0.5;fill:url(#SVGID_00000157289198922809770130000003854908431479639686_);enable-background:new    ;" points="
		245.2,318.5 116.1,485.2 236.8,519.1 365.9,352.6 	"/>
	
		<linearGradient id="SVGID_00000160875259538017338900000002928445087994047920_" gradientUnits="userSpaceOnUse" x1="417.5896" y1="48.6943" x2="308.3455" y2="-126.249" gradientTransform="matrix(1 0 0 -1 -120.9449 379.3622)">
		<stop  offset="0" style="stop-color:#BCC4CD"/>
		<stop  offset="0.4969" style="stop-color:#DBE0E4;stop-opacity:0.5031"/>
		<stop  offset="1" style="stop-color:#FFFFFF;stop-opacity:0"/>
	</linearGradient>
	
		<polygon style="opacity:0.25;fill:url(#SVGID_00000160875259538017338900000002928445087994047920_);enable-background:new    ;" points="
		267.9,328.6 138.6,495 217.2,506.4 346.3,340 	"/>
	
		<linearGradient id="SVGID_00000050645677803436486580000007574397709273618066_" gradientUnits="userSpaceOnUse" x1="309.4657" y1="121.8034" x2="532.3698" y2="25.6342" gradientTransform="matrix(1 0 0 -1 -120.9449 379.3622)">
		<stop  offset="0" style="stop-color:#FFFFFF;stop-opacity:0"/>
		<stop  offset="2.262006e-02" style="stop-color:#F7F8F8;stop-opacity:4.278058e-02"/>
		<stop  offset="0.1207" style="stop-color:#D3D8DD;stop-opacity:0.2282"/>
		<stop  offset="0.2203" style="stop-color:#B7C1C7;stop-opacity:0.4166"/>
		<stop  offset="0.3208" style="stop-color:#A4B1B9;stop-opacity:0.6067"/>
		<stop  offset="0.4229" style="stop-color:#99A5AF;stop-opacity:0.7998"/>
		<stop  offset="0.5287" style="stop-color:#95A2AC"/>
		<stop  offset="0.6162" style="stop-color:#99A6AF;stop-opacity:0.8145"/>
		<stop  offset="0.7092" style="stop-color:#A7B2BA;stop-opacity:0.6171"/>
		<stop  offset="0.8048" style="stop-color:#BCC4CB;stop-opacity:0.4142"/>
		<stop  offset="0.9022" style="stop-color:#D9DEE1;stop-opacity:0.2075"/>
		<stop  offset="1" style="stop-color:#FFFFFF;stop-opacity:0"/>
	</linearGradient>
	<path style="opacity:0.5;fill:url(#SVGID_00000050645677803436486580000007574397709273618066_);enable-background:new    ;" d="
		M179.6,267.3L179.6,267.3c-16.5,24.3-6.9,57.8,20,69.6L334,395.3c21.8,9.4,47.2,1.2,59.2-19.2l49.4-83.9L179.6,267.3z"/>
</g>
<g>
	<g>
		<circle class="st4" cx="311.4" cy="219.1" r="150.3"/>
		<polygon class="st5" points="201.1,117 198.2,117 195.4,123.5 		"/>
		<polygon class="st5" points="176.8,151.9 174.1,151.9 169.2,162.5 172.1,162.5 178.8,157.4 		"/>
		<path class="st5" d="M417.7,112.9c7.4,17.8,11.4,37.2,11.4,57.6c0,83.1-67.4,150.3-150.3,150.3c-41.7,0-79.2-16.9-106.4-44.1
			c22.7,54.5,76.4,92.9,138.8,92.9c83.1,0,150.3-67.4,150.3-150.3C461.6,177.7,444.9,140.1,417.7,112.9z"/>
		<path class="st6" d="M166.6,259.3h4.5l5.9,12l6.5,0.8l6.7,11.2v4.7l9.6,4.3l8.4,0.8l3.1,4.5h4.1l4.5,9.2v9.4l10.6,17.4l-0.8,5.3
			l13.9,14.3C206.4,334.5,178,300.6,166.6,259.3z M343.6,76.6l7.8,7.8l8.2,2.7c0,0,0.6-2,0.4-2.2c0-0.2-7.1-2.7-7.1-2.7l-6.5-9.2
			c-0.4-0.2-1-0.2-1.4-0.4L343.6,76.6z M309.5,68.8l-1.2,2.7l3.1,3.3l3.7-1.6l3.5,0.6l-2.9-4.9c-1.4,0-2.9-0.2-4.3-0.2
			C310.7,68.8,310.1,68.8,309.5,68.8z M457.6,253.8v-24.5l-2.9,0.2l-8.2,16.5l-2.7,13.7l-6.3,7.4l1.6-36.5l-3.7,1.8l-3.9-13.5
			l-14.1-1.8l-1.2-6.5l-7.1,3.3l-5.3-3.3l-3.1-7.4l-4.7,1.4l6.5,10.4l2.2,6.5l5.1-0.4l3.1-5.1l1.6,5.7l5.1,3.7l-1.8,7.1L405.5,245
			l-19.6,8.4l-1.8-14.1l-16.3-30.2l-3.5,1.4l18.2,42.3l2.2,6.5l16.3-2.9l-10.6,19.6L370,291.4l-5.1,12l1.8,6.5l-4.1,10.6l-14.9,6.5
			v9.8l-6.9,2.2c0,0-2.2,4.1-2.2,5.5s-16.7,9.2-16.7,9.2l-5.5-2.2l-6.7-27.4l1.8-15.3l-1.8-11.2l-8.6-10.2l2.2-12.5h-8.8l-5.1-6.1
			l-15.3,6.1h-13.5l-9.8-3.9l-13.9-18.4l1-15.5l-2.9-8.6l10-18l8.2-8.2v-4.5l3.3-5.3l3.7-1.4l4.1-5.1l9.4,1.8l8-4.5l24.1-1.8
			l1.4,7.4l-2.9,2l3.3,3.1l10.4,1l0.6,2.9l9.2,3.7l2.5-1.8l-1-2.9l6.5-3.3l17.4,6.1l2.9-2l9,1.6l3.7-10.8l0.4-6.1l-3.9-0.2l-5.1,2.7
			l-2.5-2.2l-4.1,1.8l-7.1-4.5l-0.8-5.9l6.7-4.3l10-3.3l14.1,3.1l2.7-2.7l-1-2.7l-10.2-6.5l1.4-3.1l-0.2-3.3l-6.9,2.2l2,3.7
			l-4.5,1.8l-5.7-6.9l-4.9,10l-2,1.4l2,5.5l-4.9,2l-1.4-0.8l-7.8,1.8l4.5,4.3l0.4,2.9l-2.2,1l-1,3.3l-3.3-1.8l-5.5-8.2l-0.6-6.9
			l-7.8-3.9l-6.9-6.9l-2.9,2.2l4.9,6.9l10.4,7.6l-3.5-0.6l0.8,3.3l-4.1,4.7l0.6-4.9l-1.2-2.9l-10.6-5.7l-4.7-6.5
			c0,0-6.9,3.9-7.8,4.1c-0.6,0.2-7.1-1.6-7.1-1.6s-1.2,4.1-1.2,4.5c-0.2,0.4-8.8,5.7-8.8,5.7l0.2,4.1l-5.7,6.1l-8.2,1.4l-3.3-2.7
			l-4.7,0.4l-0.2-4.3l-1.8-2.2l3.1-5.1l-0.4-6.5l3.7-2.7l14.3,0.6l2-8.2l-2.7-3.1l-5.5-2.2l1-2.7l6.3,0.6l1.2-3.3l3.7,1.2l4.1-2
			l0.2-2.2l11.4-9l4.7,1l-1.2-9.2l5.3-3.1l1,4.3l-1.6,3.9l2.2,2.7l3.7-1l1.8,1.8l14.9-3.5l-0.6-5.5l1.6-2.9l4.7,2l-2-5.5l7.1-0.4
			l3.3-3.3l-2-1.6l-8.2,2l-4.7-0.4l-1.4-6.7l5.3-7.8l-6.3-1.4l0.6,3.9l-5.3,3.9l-1.4,5.7l4.5,3.3l-3.5,3.5v7.6l-6.9,3.3l-4.7-11.4
			l-7.8,3.3l-4.7-2l0.2-10l13.5-6.5l3.9-11.2l15.3-5.3l22.5,9.2l1.8-3.3l4.7,3.9l9.2-4.7l-3.9-7.8l3.3-2.7
			c55.7,21.8,95.4,76.4,95.4,139.9C461.6,230.9,460.2,242.6,457.6,253.8z M402,172.3l3.5-1.8l-10-8.8v-3.3l4.1-1.8l-1.4-3.9H393
			l-4.7,5.3l1.8,5.7l5.9,6.5v8.2l4.7,4.3h4.7v-5.3L402,172.3z M178.8,157.4l-2-5.5c-1.6,3.5-3.3,6.9-4.7,10.4L178.8,157.4z
			 M379.8,313.4l-13.3,8l-3.1,8l-3.9,2l-2,7.1h4.3l18-17.6L379.8,313.4L379.8,313.4z M187.6,153.8l1.6-11.2l6.7-8.2v-5.7l5.1-11.6
			c-6.7,7.4-12.9,15.3-18,23.7l2.2,3.3l-3.5,6.9L187.6,153.8z M269.1,137l0.4-4.9l2.9-1.2l-1.4-3.7l-8,3.1v3.9l-3.5,2.7l1.4,2.5
			L269.1,137z M310.9,179.9l5.3,3.7l1-4.3L310.9,179.9z M300.3,166.2v1.8l3.1-0.4v-3.1L300.3,166.2z M345.2,187l-3.9,0.4l-1.8-1
			l-1.6,1.4l2.5,1.4h4.9V187z M255.2,98l-0.8,5.1l4.1,2l10-4.7v-4.7l-8.4,2.9v-2.9L255.2,98z M361,188.1v1.4l3.5,0.4v-3.5L361,188.1
			z M300.1,173.2v4.3l3.5-1.8v-5.3h-4.5L300.1,173.2z M286.4,136.8v-2.7h-2.9l-4.1-8.8l2-5.1l-2.5-3.5l-6.9,2.7v4.3l4.1,7.6
			l-4.1,3.3l-0.8,7.8l10.6-2L286.4,136.8z M241.9,85.8l-12.7,10.8L217,111.5l2.7,3.1L238,98.4l5.7-0.2l7.6-5.7l16.1-4.1L293,70
			C275,72.1,257.6,77.6,241.9,85.8z"/>
		<g>
			<path class="st7" d="M240.9,353.5L227,339.2l0.8-5.3l-10.6-17.4v-9.4l-4.5-9.2h-4.1l-3.1-4.5l-8.4-0.8l-9.6-4.3v-4.7l-6.7-11.2
				l-6.5-0.8l-5.9-12h-4.5C175.2,300.6,203.5,334.5,240.9,353.5z"/>
			<path class="st8" d="M340.8,76.6l7.8,7.8l8.2,2.7c0,0,0.6-2,0.4-2.2c0-0.2-7.1-2.7-7.1-2.7l-6.5-9c-0.4-0.2-1-0.2-1.4-0.4
				L340.8,76.6z"/>
			<path class="st8" d="M306.7,68.8l-1.2,2.7l3.1,3.3l3.7-1.6l3.5,0.6l-2.9-4.9c-1.4,0-2.9-0.2-4.3-0.2
				C307.9,68.8,307.3,68.8,306.7,68.8z"/>
			<path class="st8" d="M463.7,219.1c0-63.7-42.9-119.5-98.8-141.3l-4.5,4.1l3.9,7.8l-9.2,4.7l-4.7-3.9l-1.8,3.3l-22.5-9.2
				l-15.3,5.3l-3.9,11.2l-13.5,6.5l-0.2,10l4.7,2l7.8-3.3l4.7,11.4l6.9-3.3V118l3.5-3.5l-4.5-3.3l1.4-5.7l5.3-3.9l-0.6-3.9l6.3,1.4
				l-5.3,7.8l1.4,6.7l4.7,0.4l8.2-2l2,1.6l-3.3,3.3l-7.1,0.4l2,5.5l-4.7-2l-1.6,2.9l0.6,5.5l-14.9,3.5l-1.8-1.8l-3.7,1l-2.2-2.7
				l1.6-3.9l-1-4.3l-5.3,3.1l1.2,9.2l-4.7-1l-11.4,9l-0.2,2.2l-4.1,2l-3.7-1.2l-1.2,3.3l-6.3-0.6l-1,2.7l5.5,2.2l2.7,3.1l-2,8.2
				l-14.3-0.6l-3.7,2.7l0.4,6.5l-3.1,5.1l1.8,2.2l0.2,4.3l4.7-0.4l3.3,2.7l8.2-1.4l5.7-6.1L276,174c0,0,8.6-5.5,8.8-5.7
				c0.2-0.4,1.2-4.5,1.2-4.5s6.5,1.8,7.1,1.6s7.8-4.1,7.8-4.1l4.7,6.5l10.6,5.7l1.2,2.9l-0.6,4.9l4.1-4.7l-0.8-3.3l3.5,0.6
				l-10.4-7.6l-4.9-6.9l2.9-2.2l6.9,6.9l7.8,3.9l0.6,6.9l5.5,8.2l3.3,1.8l1-3.3l2.2-1l-0.4-2.9l-4.5-4.3l7.8-1.8l1.4,0.8l4.9-2
				l-2-5.5l2-1.4l4.9-10l5.7,6.9l4.5-1.8l-2-3.7l6.9-2.2l0.2,3.3l-1.4,3.1l10.2,6.5l1,2.7l-2.7,2.7l-14.1-3.1l-10,3.3l-6.7,4.3
				l0.8,5.9l7.1,4.5l4.1-1.8l2.5,2.2l5.1-2.7l3.9,0.2l-0.4,6.1l-3.7,10.8l-9-1.6l-2.9,2l-17.4-6.1l-6.5,3.3l1,2.9l-2.5,1.8l-9.2-3.7
				l-0.6-2.9l-10.4-1l-4.9-3.7l2.9-2l-1.4-7.4l-24.1,1.8l-8,4.5l-9.4-1.8l-4.1,5.1l-3.7,1.4l-3.3,5.1v4.5l-8.2,8.2l-10,18l2.9,8.6
				l-1,15.5l13.9,18.4l9.8,3.9h13.5l15.3-6.1l5.1,6.1h8.8l-2.2,12.5l8.6,10.2l1.8,11.2l-1.8,15.3l6.7,27.4l5.5,2.2
				c0,0,16.7-8,16.7-9.2c0-1.4,2.2-5.5,2.2-5.5l6.9-2.2v-9.8l14.9-6.5l4.1-10.6l-1.8-6.5l5.1-12l20.4-15.3l10.6-19.6l-16.3,2.9
				l-2.2-6.5l-18.2-42.3l3.5-1.4l16.3,30.2l1.8,14.1l19.6-8.4l12.5-12.5l1.8-7.1l-5.1-3.7l-1.6-5.7l-3.1,5.1L402,222l-2.2-6.5
				l-6.5-10.4l4.7-1.4l3.1,7.4l5.3,3.3l7.1-3.3l1.2,6.5l14.1,1.8l3.9,13.5l3.7-1.8l-1.6,36.5l6.3-7.4l2.7-13.7l8.2-16.5l2.9-0.2
				l2.5,25.7C460,243.8,463.7,230.9,463.7,219.1z M402.6,177.5v5.7h-4.7l-4.7-4.3v-8.2l-5.9-6.5l-1.8-5.7l4.7-5.3h5.1l1.4,3.9
				l-4.1,1.8v3.3l10,8.8l-3.5,1.8L402.6,177.5z"/>
			<path class="st8" d="M176,157.4l-2-5.5c-1.6,3.5-3.3,6.9-4.7,10.4L176,157.4z"/>
			<polygon class="st7" points="376.9,313.4 363.6,321.4 360.6,329.4 356.7,331.6 354.6,338.8 358.9,338.8 376.9,321 			"/>
			<path class="st8" d="M184.8,153.8l1.6-11.2l6.7-8.2v-5.7l5.1-11.6c-6.7,7.4-12.9,15.3-18,23.7l2.2,3.3l-3.3,6.9L184.8,153.8z"/>
			<polygon class="st8" points="266.2,137 266.6,132.1 269.5,130.9 268.1,127.2 259.9,130.1 259.9,134 256.4,136.6 257.9,139.1 			
				"/>
			<polygon class="st8" points="308.1,179.9 313.4,183.6 314.4,179.3 			"/>
			<polygon class="st8" points="297.5,166.2 297.5,168.1 300.3,167.7 300.3,164.6 			"/>
			<polygon class="st8" points="342.6,187 338.7,187.5 336.7,186.6 335,188.1 337.7,189.5 342.6,189.5 			"/>
			<polygon class="st8" points="252.3,98 251.5,103.1 255.6,105.2 265.8,100.5 265.8,95.8 257.4,98.6 257.4,95.8 			"/>
			<polygon class="st7" points="358.1,188.1 358.1,189.5 361.6,189.9 361.6,186.6 			"/>
			<polygon class="st8" points="297.3,173.2 297.5,177.5 300.9,175.6 300.9,170.5 296.4,170.5 			"/>
			<polygon class="st8" points="283.6,136.8 283.6,134.2 280.9,134.2 276.6,125.4 278.9,120.5 276.4,117 269.5,119.5 269.5,124 
				273.6,131.3 269.5,134.8 268.5,142.5 279.1,140.5 			"/>
			<path class="st8" d="M239.1,85.8l-12.7,10.8l-12.3,14.9l2.7,3.1l18.4-16.1l5.7-0.2l7.6-5.7l16.1-4.1L290.1,70
				C272.1,72.1,254.8,77.6,239.1,85.8z"/>
		</g>
		<path class="st5" d="M452.4,167.2c2,9.8,3.1,20,3.1,30.4c0,83.1-67.4,150.3-150.3,150.3c-49.2,0-92.9-23.7-120.5-60.2
			c-4.3-3.5-8.6-7.1-12.5-11c22.7,54.5,76.4,92.9,138.8,92.9c83.1,0,150.3-67.4,150.3-150.3C461.6,200.9,458.4,183.4,452.4,167.2z"
			/>
		<g>
			<path class="st7" d="M238,350.4l-10.8-11.2l0.8-5.3l-10.6-17.4v-9c-16.7-7.6-32.1-18.2-44.9-31
				C185.4,307.9,208.6,333.9,238,350.4z"/>
			<path class="st7" d="M417.7,112.9c7.4,17.8,11.4,37.2,11.4,57.6c0,16.7-2.7,32.7-7.8,47.6l7.6,1l3.9,13.5l3.7-1.8l-1.6,36.5
				l6.3-7.4l2.7-13.7l8.2-16.5l2.9-0.2l2.5,25.7c2.9-11.4,4.3-23.5,4.3-35.7C461.6,177.7,444.9,140.1,417.7,112.9z"/>
			<path class="st7" d="M318.9,354.5c0,0,16.7-8,16.7-9.2c0-1.4,2.2-5.5,2.2-5.5l6.9-2.2v-9.8l14.9-6.5l4.1-10.6L362,304l4.9-11.6
				c-17.4,12.7-37.6,21.6-59.6,25.9l-0.8,6.7l6.7,27.4L318.9,354.5z"/>
			<path class="st7" d="M375.9,285.3l11.8-8.8l3.1-5.5C386.1,276.1,381.2,280.8,375.9,285.3z"/>
			<polygon class="st8" points="356.7,331.6 354.6,338.8 358.9,338.8 376.9,321 376.9,313.4 363.6,321.4 360.6,329.4 			"/>
		</g>
	</g>
	<polygon id="XMLID_78_" class="st9" points="366.5,202 367.3,202.6 369.5,202.6 373.6,199.5 373.6,198.3 372.2,197.1 372.2,195.6 
		375.5,195.2 377.3,194 375.9,190.9 371.2,194 368.1,192.4 367.9,195.4 	"/>
	<polygon id="XMLID_69_" class="st9" points="402.4,221.6 402.4,225.2 411.8,225.8 412,221.8 410.6,216 407.5,221.1 	"/>
</g>
</svg>
